<?xml version="1.0" encoding="UTF-8" standalone="no"?>
<svg
   xmlns="http://www.w3.org/2000/svg"
   width="1052.3622"
   height="400"
   id="svg2520"
   version="1.0"
   viewBox="0 0 1052.3622 400">
  <g id="layer1">
    <!-- Blue text elements -->
    <path
       d="M 952.16599,136.10437 L 982.83371,136.10437 L 982.83371,305.15522 L 952.16599,305.15522 L 952.16599,136.10437 z"
       style="fill:#2e3192;fill-opacity:1;fill-rule:nonzero;stroke:none"
       id="path77" />
    <g
       id="g87"
       transform="matrix(9.9570533,0,0,-9.9570533,772.21918,274.50741)">
      <path
         d="M 0,0 L 7.216,0 C 7.261,-0.047 7.308,-0.07 7.355,-0.07 L 7.499,-0.07 L 7.64,-0.07 L 7.779,-0.07 C 7.828,-0.094 7.875,-0.105 7.921,-0.105 L 8.064,-0.105 L 8.204,-0.105 L 8.346,-0.105 C 8.629,-0.105 8.895,-0.087 9.144,-0.053 C 9.389,-0.017 9.632,0.047 9.869,0.143 C 10.103,0.215 10.279,0.349 10.398,0.549 C 10.515,0.749 10.575,1.002 10.575,1.309 C 10.575,1.639 10.486,1.934 10.311,2.194 C 10.133,2.452 9.869,2.678 9.513,2.865 C 9.159,3.054 8.752,3.23 8.293,3.396 C 7.833,3.561 7.332,3.726 6.791,3.891 C 6.718,3.914 6.649,3.932 6.578,3.945 C 6.508,3.955 6.437,3.973 6.366,3.998 C 6.273,4.021 6.189,4.039 6.117,4.05 C 6.047,4.063 5.978,4.079 5.906,4.103 C 5.74,4.15 5.582,4.198 5.428,4.244 C 5.273,4.291 5.128,4.34 4.987,4.387 C 4.233,4.574 3.555,4.822 2.954,5.129 C 2.353,5.436 1.815,5.777 1.342,6.156 C 0.896,6.555 0.559,7.021 0.334,7.553 C 0.111,8.082 0,8.689 0,9.373 C 0,10.339 0.165,11.137 0.496,11.76 C 0.824,12.385 1.318,12.816 1.98,13.052 C 2.643,13.311 3.36,13.505 4.138,13.635 C 4.915,13.766 5.767,13.831 6.684,13.831 L 13.085,13.9 L 13.085,11.142 L 6.401,11.142 C 5.978,11.095 5.582,11.047 5.217,11 C 4.853,10.953 4.517,10.882 4.208,10.788 C 3.902,10.694 3.678,10.552 3.537,10.363 C 3.394,10.175 3.324,9.94 3.324,9.657 C 3.324,9.35 3.401,9.072 3.555,8.824 C 3.708,8.577 3.936,8.371 4.246,8.205 C 4.55,8.041 4.874,7.895 5.217,7.764 C 5.558,7.635 5.917,7.512 6.297,7.393 C 6.412,7.368 6.525,7.346 6.63,7.322 C 6.736,7.299 6.836,7.275 6.933,7.252 C 6.979,7.227 7.024,7.209 7.072,7.197 C 7.122,7.187 7.18,7.181 7.249,7.181 C 7.297,7.156 7.345,7.139 7.391,7.127 C 7.439,7.115 7.487,7.11 7.534,7.11 C 7.604,7.086 7.674,7.063 7.746,7.038 C 7.815,7.016 7.888,6.991 7.957,6.968 C 8.005,6.968 8.039,6.962 8.064,6.95 C 8.086,6.938 8.123,6.932 8.17,6.932 C 8.192,6.91 8.222,6.891 8.257,6.88 C 8.293,6.867 8.324,6.861 8.346,6.861 C 9.383,6.508 10.268,6.143 10.999,5.766 C 11.731,5.388 12.295,4.999 12.698,4.599 C 13.097,4.198 13.398,3.721 13.599,3.166 C 13.799,2.612 13.9,1.993 13.9,1.309 C 13.877,0.532 13.753,-0.123 13.528,-0.653 C 13.305,-1.186 12.993,-1.604 12.59,-1.91 C 12.213,-2.217 11.805,-2.463 11.371,-2.652 C 10.933,-2.841 10.481,-2.973 10.01,-3.041 C 9.845,-3.064 9.685,-3.077 9.531,-3.077 L 9.089,-3.077 L 8.877,-3.077 C 8.806,-3.077 8.734,-3.089 8.666,-3.113 L 8.471,-3.113 L 8.276,-3.113 L 8.082,-3.113 L 7.921,-3.113 L 7.727,-3.113 L 7.568,-3.113 C 7.499,-3.089 7.432,-3.077 7.374,-3.077 L 7.216,-3.077 L 7.072,-3.077 L 6.933,-3.077 L 0,-3.077 L 0,0 z"
         style="fill:#2e3192;fill-opacity:1;fill-rule:nonzero;stroke:none"
         id="path89" />
    </g>
    <path
       d="M 699.65511,136.10437 L 730.28302,136.10437 L 730.28302,305.15522 L 699.65511,305.15522 L 699.65511,136.10437 z"
       style="fill:#2e3192;fill-opacity:1;fill-rule:nonzero;stroke:none"
       id="path91" />
    <path
       d="M 466.92891,136.10437 L 497.57672,136.10437 L 497.57672,305.15522 L 466.92891,305.15522 L 466.92891,136.10437 z"
       style="fill:#2e3192;fill-opacity:1;fill-rule:nonzero;stroke:none"
       id="path93" />
    <g
       id="g95"
       transform="matrix(9.9570533,0,0,-9.9570533,339.45179,249.84872)">
      <path
         d="M 0,0 L 0,15.598 L 3.323,15.598 L 3.323,11.424 L 9.763,11.424 L 9.763,8.382 L 3.323,8.382 L 3.323,-0.248 C 3.323,-0.578 3.347,-0.874 3.396,-1.132 C 3.443,-1.392 3.513,-1.639 3.608,-1.875 C 3.701,-2.111 3.908,-2.282 4.227,-2.389 C 4.545,-2.493 4.988,-2.547 5.554,-2.547 L 9.479,-2.477 L 9.479,-5.554 L 5.305,-5.554 L 5.233,-5.554 L 5.163,-5.554 L 5.11,-5.554 C 5.099,-5.554 5.082,-5.565 5.058,-5.589 L 4.988,-5.589 L 4.915,-5.589 L 4.863,-5.589 L 4.811,-5.589 C 4.007,-5.589 3.312,-5.471 2.723,-5.234 C 2.133,-5 1.649,-4.633 1.273,-4.139 C 0.897,-3.644 0.607,-3.114 0.406,-2.547 C 0.204,-1.982 0.084,-1.392 0.035,-0.778 C 0.01,-0.73 0,-0.679 0,-0.619 L 0,-0.425 L 0,-0.266 L 0,-0.071 L 0,0 z"
         style="fill:#2e3192;fill-opacity:1;fill-rule:nonzero;stroke:none"
         id="path97" />
    </g>
    <g
       id="g99"
       transform="matrix(9.9570533,0,0,-9.9570533,317.09223,131.99211)">
      <path
         d="M 0,0 L 0,-4.921 C -3.112,-3.404 -3.983,-6.838 -3.983,-9.219 L -3.983,-17.39 L -7.464,-17.39 L -7.464,-7.975 C -7.464,-3.287 -4.701,0.721 0,0"
         style="fill:#2e3192;fill-opacity:1;fill-rule:nonzero;stroke:none"
         id="path101" />
    </g>
    <g
       id="g103"
       transform="matrix(9.9570533,0,0,-9.9570533,179.65797,305.14725)">
      <path
         d="M 0,0 L 0,9.763 C 0,10.281 -0.099,10.794 -0.297,11.302 C -0.499,11.808 -0.799,12.286 -1.2,12.734 C -1.6,13.206 -2.168,13.558 -2.898,13.795 C -3.629,14.03 -4.514,14.149 -5.549,14.149 C -5.715,14.149 -5.887,14.136 -6.063,14.112 C -6.24,14.09 -6.435,14.053 -6.646,14.007 C -6.859,13.983 -7.072,13.936 -7.284,13.865 C -7.495,13.795 -7.709,13.7 -7.92,13.582 C -8.296,13.417 -8.664,13.187 -9.016,12.892 C -9.372,12.598 -9.712,12.25 -10.043,11.849 C -10.35,11.473 -10.598,11.007 -10.785,10.452 C -10.972,9.897 -11.093,9.268 -11.14,8.56 C -11.14,7.616 -11.01,6.798 -10.751,6.102 C -10.491,5.406 -10.101,4.823 -9.584,4.351 C -9.041,3.902 -8.481,3.543 -7.903,3.271 C -7.325,3.001 -6.718,2.829 -6.082,2.759 L -5.993,2.759 L -5.906,2.759 C -5.856,2.735 -5.816,2.724 -5.78,2.724 L -5.693,2.724 L -5.586,2.724 L -5.479,2.724 L -5.391,2.724 L -5.302,2.724 C -5.019,2.724 -4.755,2.741 -4.507,2.776 C -4.259,2.812 -4.016,2.876 -3.782,2.972 C -3.664,3.019 -3.553,3.065 -3.445,3.113 C -3.34,3.16 -3.228,3.206 -3.111,3.255 C -3.016,3.325 -2.91,3.396 -2.791,3.466 C -2.673,3.536 -2.567,3.619 -2.474,3.715 C -2.356,3.784 -2.243,3.874 -2.138,3.979 C -2.032,4.085 -1.918,4.187 -1.801,4.28 C -1.684,4.398 -1.565,4.509 -1.448,4.616 C -1.329,4.722 -1.211,4.833 -1.094,4.952 L -1.094,1.097 C -1.118,1.05 -1.135,1.021 -1.147,1.008 C -1.159,0.997 -1.164,0.991 -1.164,0.991 L -1.164,0.955 C -1.448,0.767 -1.744,0.595 -2.049,0.442 C -2.356,0.288 -2.673,0.154 -3.004,0.036 C -3.335,-0.059 -3.736,-0.136 -4.206,-0.194 C -4.679,-0.253 -5.221,-0.282 -5.834,-0.282 L -5.887,-0.282 L -5.94,-0.282 L -6.01,-0.282 L -6.046,-0.282 L -6.117,-0.282 L -6.188,-0.282 L -6.24,-0.282 L -6.293,-0.282 C -7.379,-0.282 -8.387,-0.088 -9.316,0.3 C -10.25,0.69 -11.106,1.286 -11.881,2.087 C -12.658,2.912 -13.244,3.861 -13.634,4.935 C -14.022,6.007 -14.217,7.216 -14.217,8.56 C -14.217,9.739 -14.027,10.835 -13.649,11.849 C -13.272,12.862 -12.708,13.795 -11.953,14.643 C -11.197,15.492 -10.266,16.129 -9.159,16.553 C -8.049,16.978 -6.765,17.189 -5.302,17.189 C -3.911,17.189 -2.673,17 -1.591,16.623 C -0.505,16.247 0.404,15.681 1.135,14.926 C 1.888,14.172 2.45,13.376 2.814,12.539 C 3.179,11.702 3.364,10.835 3.364,9.938 L 3.364,0 L 0.002,0 L 0,0 z"
         style="fill:#2e3192;fill-opacity:1;fill-rule:nonzero;stroke:none"
         id="path105" />
    </g>
    
    <!-- Green swirl element -->
    <path
       id="path109"
       style="fill:#58c034;fill-opacity:1;fill-rule:nonzero;stroke:none"
       d="M 637.19652,183.5228 C 695.45523,80.985067 824.90689,42.003207 904.65292,48.226367 C 819.36081,52.627377 701.49917,95.343147 637.19652,183.5228 M 970.0608,89.339027 C 968.35815,94.815417 965.42082,100.66021 960.91027,106.91324 L 966.97412,106.91324 C 965.39095,110.08953 963.36966,113.38532 960.91027,116.81055 L 966.97412,116.81055 C 965.36107,119.97689 963.37963,123.28263 960.91027,126.6979 L 990.70178,126.6979 C 1003.1182,110.77657 1007.569,97.145367 1005.7369,85.883947 C 1006.2248,82.498547 1006.1551,79.312277 1005.6772,76.285337 C 1019.7067,-17.261137 661.07353,18.962583 599.64846,240.85552 C 595.40676,253.6105 587.16232,251.08141 585.41984,242.15989 C 565.83432,141.2352 500.70523,-20.457352 457.71067,80.616657 L 462.53984,80.417507 C 460.89693,83.444457 459.28389,86.760157 457.71067,90.513967 L 462.53984,90.314827 C 460.89693,93.351727 459.28389,96.667427 457.71067,100.39136 L 487.6117,99.166647 C 498.85321,26.420417 550.0026,142.56945 576.34896,298.89518 C 580.61058,314.68707 599.86752,319.21753 607.43489,298.89518 C 619.09459,57.038347 943.96337,18.265589 970.0608,89.339027 M 637.26621,173.50601 C 695.59463,70.968277 825.16577,32.076027 904.85206,38.339007 C 819.62964,42.670327 701.64852,85.306427 637.26621,173.50601 M 494.68121,59.338427 C 500.98402,52.936047 509.90554,61.051047 519.84268,79.899747 C 511.5385,69.056517 503.04514,61.698257 494.68121,59.338427 M 494.68121,69.245697 C 500.98402,62.833357 509.90554,70.948357 519.84268,89.807017 C 511.5385,78.953827 503.04514,71.595567 494.68121,69.245697" />
    
    <!-- Small text elements at bottom -->
    <path
       d="M 62.075107,319.78213 L 65.161813,319.78213 L 65.161813,323.71517 L 62.075107,323.71517 L 62.075107,319.78213 z M 62.075107,327.13044 L 65.161813,327.13044 L 65.161813,345.99905 L 62.075107,345.99905 L 62.075107,327.13044 z"
       style="fill:#2e3192;fill-opacity:1;fill-rule:nonzero;stroke:none"
       id="path111" />
    <g
       id="g113"
       transform="matrix(9.9570533,0,0,-9.9570533,172.3017,334.6191)">
      <path
         d="M 0,0 L 0,-1.143 L -0.312,-1.143 L -0.312,-0.01 C -0.312,0.17 -0.346,0.305 -0.417,0.394 C -0.487,0.482 -0.59,0.527 -0.732,0.527 C -0.9,0.527 -1.032,0.473 -1.13,0.367 C -1.226,0.26 -1.277,0.113 -1.277,-0.072 L -1.277,-1.143 L -1.588,-1.143 L -1.588,0.752 L -1.277,0.752 L -1.277,0.457 C -1.2,0.572 -1.113,0.657 -1.012,0.714 C -0.911,0.77 -0.793,0.797 -0.663,0.797 C -0.445,0.797 -0.281,0.73 -0.168,0.594 C -0.057,0.461 0,0.262 0,0"
         style="fill:#2e3192;fill-opacity:1;fill-rule:nonzero;stroke:none"
         id="path115" />
    </g>
    <!-- Additional small text elements... -->
    <path
       d="M 872.94767,319.78213 L 876.05427,319.78213 L 876.05427,323.71517 L 872.94767,323.71517 L 872.94767,319.78213 z M 872.94767,327.13044 L 876.05427,327.13044 L 876.05427,345.99905 L 872.94767,345.99905 L 872.94767,327.13044 z"
       style="fill:#2e3192;fill-opacity:1;fill-rule:nonzero;stroke:none"
       id="path141" />
  </g>
</svg>